HIERARCHY
ROOT Hips
{
	OFFSET 0.000000 0.000000 0.000000
	CHANNELS 6 Xposition Yposition Zposition Zrotation Yrotation Xrotation 
	JOINT LHipJoint
	{
		OFFSET 0.000000 0.000000 0.000000
		CHANNELS 3 Zrotation Yrotation Xrotation
		JOINT LeftUpLeg
		{
			OFFSET 1.363060 -1.794630 0.839290
			CHANNELS 3 Zrotation Yrotation Xrotation
			JOINT LeftLeg
			{
				OFFSET 2.448110 -6.726130 0.000000
				CHANNELS 3 Zrotation Yrotation Xrotation
				JOINT LeftFoot
				{
					OFFSET 2.562200 -7.039590 0.000000
					CHANNELS 3 Zrotation Yrotation Xrotation
					JOINT LeftToeBase
					{
						OFFSET 0.157640 -0.433110 2.322550
						CHANNELS 3 Zrotation Yrotation Xrotation
						End Site
						{
							OFFSET 0.000000 0.000000 0.000000
						}
					}
				}
			}
		}
	}
	JOINT RHipJoint
	{
		OFFSET 0.000000 0.000000 0.000000
		CHANNELS 3 Zrotation Yrotation Xrotation
		JOINT RightUpLeg
		{
			OFFSET -1.305520 -1.794630 0.839290
			CHANNELS 3 Zrotation Yrotation Xrotation
			JOINT RightLeg
			{
				OFFSET -2.542530 -6.985550 0.000000
				CHANNELS 3 Zrotation Yrotation Xrotation
				JOINT RightFoot
				{
					OFFSET -2.568260 -7.056230 0.000000
					CHANNELS 3 Zrotation Yrotation Xrotation
					JOINT RightToeBase
					{
						OFFSET -0.164730 -0.452590 2.363150
						CHANNELS 3 Zrotation Yrotation Xrotation
						End Site
						{
							OFFSET 0.000000 0.000000 0.000000
						}
					}
				}
			}
		}
	}
}
MOTION
Frames: 25
Frame Time: 0.008333
-1.997358 16.944296 -1.581234 -173.011047 87.286327 -164.686861 -10.874508 4.773025 0.868757 -18.791647 2.924267 -2.771946 -1.914615 2.463568 32.090021 -0.188452 -4.901582 1.619060 -0.562500 -0.000000 -38.130500 8.673947 0.072658 3.704536 4.269787 8.491780 -31.267096 2.538918 -0.675930 17.593357 1.344591 9.075292 4.401899 1.466099 0.000000 -59.515100
-1.834775 16.943968 -1.636991 -168.026574 86.733603 -159.871544 -11.271530 4.861030 0.682934 -18.025726 4.973456 -4.056569 -1.607740 2.601126 34.606900 -0.042812 -3.820903 2.969144 -0.539500 0.000001 -40.751600 8.535817 -0.185868 3.604089 5.109520 7.414159 -31.038887 2.613541 -0.745670 18.174142 1.362405 9.247829 4.405806 1.502300 -0.000000 -57.741000
-1.676425 16.944106 -1.692475 -163.886189 86.095659 -155.905046 -11.615271 4.924225 0.448498 -17.239275 7.162712 -5.456532 -1.284976 2.724262 37.249365 0.163876 -2.151144 4.266104 -0.378200 0.000000 -42.638600 8.425308 -0.434143 3.521711 5.937102 6.386237 -30.767563 2.695845 -0.804538 18.689772 1.374348 9.394932 4.241423 1.510600 -0.000000 -55.790300
-1.522348 16.944602 -1.747440 -160.591114 85.391287 -152.783110 -11.907891 4.958679 0.171111 -16.450846 9.429821 -6.949548 -0.965766 2.833989 39.980524 0.435305 0.135499 5.359809 -0.030000 0.000000 -42.870200 8.336945 -0.665517 3.460059 6.728619 5.450577 -30.442833 2.779666 -0.849538 19.135755 1.377012 9.477470 3.945101 1.486400 0.000000 -53.763299
-1.372453 16.945429 -1.801806 -158.105981 84.627246 -150.463391 -12.153403 4.959958 -0.140136 -15.674670 11.703964 -8.513712 -0.672600 2.933678 42.766261 0.766419 2.971941 6.037615 0.509801 0.000000 -40.213800 8.263315 -0.877797 3.420851 7.465569 4.634692 -30.060002 2.859097 -0.878927 19.505394 1.366186 9.452704 3.555265 1.426900 0.000000 -51.773700
-1.226444 16.946636 -1.855591 -156.379581 83.799874 -148.887211 -12.354474 4.927169 -0.472662 -14.920485 13.910923 -10.125194 -0.425898 3.029512 45.558181 1.141984 6.189066 6.082633 1.166400 -0.000000 -33.779799 8.198856 -1.070705 3.403382 8.135773 3.949373 -29.618312 2.929145 -0.892161 19.791972 1.337475 9.281073 3.106496 1.332101 -0.000000 -49.938200
-1.084028 16.948395 -1.908863 -155.349851 82.899203 -147.984109 -12.513340 4.862395 -0.806607 -14.198000 15.961325 -11.752594 -0.232749 3.126315 48.261186 1.544819 9.569318 5.489444 1.811500 -0.000000 -24.765800 8.140971 -1.243772 3.402393 8.732527 3.388229 -29.120213 2.986204 -0.889674 19.990139 1.286998 8.933302 2.626887 1.204500 -0.000000 -48.363000
-0.944780 16.950974 -1.961714 -154.971451 81.911783 -147.696260 -12.632390 4.768374 -1.111965 -13.526817 17.734731 -13.362985 -0.082048 3.223748 50.766784 1.961172 12.913290 4.575893 2.362500 -0.000000 -16.673401 8.091284 -1.395023 3.407784 9.248922 2.924671 -28.576872 3.027804 -0.872713 20.100160 1.212081 8.397301 2.134581 1.049101 0.000000 -47.127800
-0.808294 16.954601 -2.014269 -155.191134 80.820018 -147.958532 -12.713195 4.651026 -1.361939 -12.931626 19.131038 -14.949302 0.038804 3.321160 53.046930 2.367559 16.020073 3.583573 2.785099 0.000000 -11.586699 8.054497 -1.523491 3.409378 9.680106 2.514708 -28.008706 3.052996 -0.843099 20.129947 1.111759 7.680762 1.636839 0.872700 0.000000 -46.270800
-0.674113 16.959362 -2.067301 -155.829919 79.598798 -148.580763 -12.763283 4.517230 -1.543440 -12.407848 20.121346 -16.548633 0.132696 3.420341 55.143741 2.730596 18.676246 2.421680 3.000300 0.000000 -8.245200 8.026562 -1.634347 3.406715 10.047456 2.135165 -27.432277 3.065032 -0.800500 20.070615 0.984436 6.782548 1.142512 0.679300 -0.000000 -45.785100
-0.542054 16.965282 -2.121042 -156.800825 78.233090 -149.476062 -12.783554 4.373193 -1.648540 -11.969392 20.690554 -18.174931 0.207168 3.519018 57.070034 3.030941 20.770742 1.106131 2.981299 0.000001 -6.117500 8.011764 -1.729277 3.390828 10.357373 1.731412 -26.861653 3.066131 -0.746757 19.935380 0.832153 5.740576 0.644454 0.477101 0.000000 -45.622300
-0.411919 16.972218 -2.176266 -157.939342 76.709597 -150.479378 -12.782019 4.220164 -1.674592 -11.604101 20.851721 -19.852182 0.267877 3.613415 58.839087 3.258671 22.255102 -0.363865 2.725400 0.000000 -4.482100 8.004803 -1.813516 3.359556 10.637310 1.278056 -26.300855 3.061599 -0.681497 19.716749 0.656507 4.579752 0.145677 0.271800 0.000000 -45.716000
-0.283812 16.979990 -2.233523 -159.140148 75.028048 -151.492751 -12.764169 4.057915 -1.623019 -11.302530 20.626867 -21.582373 0.319806 3.698331 60.445362 3.413975 23.150759 -1.932486 2.279700 0.000000 -3.126001 8.003148 -1.890214 3.306818 10.906368 0.742886 -25.746126 3.056026 -0.605210 19.413917 0.461674 3.341741 -0.352802 0.070701 -0.000000 -45.991001
-0.157885 16.988310 -2.293368 -160.307273 73.196637 -152.429511 -12.736829 3.884206 -1.499247 -11.042053 20.052697 -23.360473 0.365108 3.769374 61.879438 3.502239 23.515016 -3.554807 1.706300 -0.000000 -1.853200 8.001382 -1.963214 3.229071 11.187963 0.110997 -25.185592 3.054306 -0.517871 19.018004 0.252275 2.061306 -0.842058 -0.120901 0.000000 -46.383300
-0.034521 16.996912 -2.355983 -161.397154 71.235598 -153.262157 -12.704112 3.697371 -1.312545 -10.803231 19.175260 -25.161792 0.404887 3.822864 63.121435 3.533394 23.438800 -5.163832 1.082200 0.000000 -0.775000 7.997175 -2.034610 3.120361 11.493569 -0.633435 -24.601247 3.059604 -0.420581 18.526223 0.034754 0.778545 -1.312123 -0.297600 0.000000 -46.837800
0.085835 17.005494 -2.421153 -162.403508 69.172683 -154.004884 -12.667006 3.496891 -1.075932 -10.571491 18.050623 -26.949207 0.438077 3.856443 64.149780 3.520175 23.028728 -6.726857 -179.535900 0.000001 -0.181500 7.991435 -2.105553 2.973828 11.822433 -1.506290 -23.972777 3.073249 -0.315793 17.942912 -0.183089 -0.465222 -1.753063 -0.455100 -0.000000 -47.309900
0.202938 17.013868 -2.489180 -163.270026 67.035416 -154.609733 -12.633577 3.278835 -0.801619 -10.310296 16.745408 -28.714871 0.463881 3.870811 64.955131 3.476908 22.396923 -8.204582 179.897100 0.000000 -0.870400 7.973003 -2.180259 2.797546 12.196605 -2.461251 -23.277429 3.097156 -0.201669 17.239514 -0.400210 -1.683972 -2.136036 -0.599301 -0.000000 -47.771801
0.316522 17.021822 -2.558840 -164.058039 64.858462 -155.162185 -12.596851 3.046218 -0.506043 -10.033440 15.322498 -30.407596 0.480224 3.864731 65.514971 3.421040 21.670040 -9.593433 179.396700 -0.000000 -1.393500 7.951835 -2.256930 2.582998 12.584806 -3.522571 -22.502195 3.127849 -0.083867 16.445972 -0.607907 -2.834182 -2.461391 -0.726800 -0.000000 -48.183100
0.426578 17.029274 -2.629653 -164.764698 62.669780 -155.667072 -12.557042 2.798897 -0.202146 -9.737544 13.846346 -32.015184 0.486137 3.839181 65.822936 3.369147 20.960735 -10.883834 178.966001 -0.000001 -1.702000 7.925768 -2.336720 2.337934 12.980845 -4.652873 -21.638705 3.162695 0.036541 15.561687 -0.805635 -3.928981 -2.715294 -0.844100 -0.000001 -48.512800
0.533443 17.036205 -2.700748 -165.419652 60.494043 -156.159448 -12.509011 2.540073 0.099049 -9.443740 12.369802 -33.521628 0.480478 3.794081 65.872699 3.336626 20.365977 -12.084411 178.591200 0.000000 -1.880400 7.900122 -2.418490 2.066869 13.359521 -5.837752 -20.694217 3.197269 0.155836 14.612571 -0.991207 -4.964064 -2.899447 -0.953901 0.000000 -48.726400
0.637625 17.042571 -2.771539 -166.029389 58.350702 -156.642044 -12.450532 2.271872 0.388902 -9.164396 10.940931 -34.930233 0.462480 3.730538 65.667221 3.334085 19.945476 -13.208389 178.253100 0.000000 -2.032500 7.875184 -2.501985 1.781845 13.709689 -7.032118 -19.678711 3.227449 0.272666 13.612492 -1.167546 -5.961960 -3.014961 -1.062500 -0.000000 -48.797900
0.739756 17.048328 -2.841648 -166.607429 56.253741 -157.121636 -12.378146 1.998332 0.662007 -8.920898 9.593931 -36.245484 0.431481 3.649042 65.209148 3.366848 19.721812 -14.268421 177.933400 -0.000000 -2.299500 7.853888 -2.585960 1.493358 14.015119 -8.202081 -18.611754 3.249303 0.384774 12.588083 -1.336747 -6.933935 -3.072522 -1.173300 -0.000000 -48.714100
0.840563 17.053493 -2.910891 -167.169339 54.211560 -157.603992 -12.288435 1.724952 0.916251 -8.737325 8.349231 -37.473334 0.387084 3.549783 64.500773 3.434104 19.679201 -15.266849 177.621701 -0.000000 -2.782600 7.840250 -2.668839 1.210223 14.259560 -9.323764 -17.519365 3.259988 0.489414 11.573722 -1.499499 -7.879220 -3.088983 -1.286000 -0.000000 -48.484700
0.940727 17.058025 -2.979489 -167.718945 52.228098 -158.081617 -12.180801 1.456825 1.151510 -8.626592 7.219068 -38.623406 0.329332 3.433612 63.545522 3.528746 19.766792 -16.192186 177.319299 0.000001 -3.506700 7.835095 -2.749751 0.942144 14.437286 -10.365034 -16.422302 3.258082 0.585299 10.593164 -1.657136 -8.800773 -3.077114 -1.401101 0.000000 -48.152299
1.040787 17.061777 -3.047963 -168.254374 50.304112 -158.542281 -12.056455 1.198982 1.369131 -8.594937 6.207745 -39.705325 0.258779 3.301838 62.347790 3.639151 19.913153 -17.019545 177.039700 -0.000001 -4.404500 7.837650 -2.828279 0.697495 14.548809 -11.295910 -15.335729 3.243559 0.671968 9.662417 -1.810011 -9.697059 -3.045403 -1.518300 0.000001 -47.790001
